# xmcd
#
# Track frame offsets: 
#        150
#        16360
#        36717
#        54535
#        79489
#        99247
#        119746
#        139268
#        157806
#        179984
#        202031
#        218056
#
# Disc length: 3220 seconds
#
# Revision: 0
# Processed by: cddbd v1.5.1PL2 Copyright (c) Steve Scherf et al.
# Submitted via: ExactAudioCopy v0.95b3
#
DISCID=b70c920c
DTITLE=Bengt Johansson - Ett Ögonkast Från Dig
DYEAR=2005
DGENRE=Lovsång
TTITLE0=Ett Ögonkast Från Dig
TTITLE1=I Kristus Har Mitt Hopp Sin Grund
TTITLE2=Så God
TTITLE3=Allt Till Jesus
TTITLE4=Ingen Ensam
TTITLE5=Vingar Som Örnen
TTITLE6=Bortom Alla Mina Vägar
TTITLE7=Ditt Lov
TTITLE8=Gregorios Lovsång (Han Köpte Världen Fri)
TTITLE9=Öppna Var Dörr
TTITLE10=Ingen Är En Klippa Som Vår Gud
TTITLE11=I Kärlekens kraft
EXTD=
EXTT0=
EXTT1=
EXTT2=
EXTT3=
EXTT4=
EXTT5=
EXTT6=
EXTT7=
EXTT8=
EXTT9=
EXTT10=
EXTT11=
PLAYORDER=
